<svg width="159" height="152" viewBox="0 0 159 152" fill="none" xmlns="http://www.w3.org/2000/svg">
<g id="about-element">
<path id="Vector" d="M4.32762 0.579163C2.75685 1.2802 1.15403 2.83464 0.512903 4.32812C0.0641129 5.33394 0 12.9233 0 75.5887C0 138.254 0.0641129 145.843 0.512903 146.849C1.15403 148.343 2.75685 149.897 4.32762 150.598C5.57782 151.147 8.20645 151.177 79.5 151.177C150.794 151.177 153.422 151.147 154.672 150.598C156.243 149.897 157.846 148.343 158.487 146.849C158.936 145.843 159 138.254 159 75.5277C159 7.80275 158.968 5.30345 158.391 4.11476C157.654 2.62128 156.019 1.09732 154.448 0.487732C153.39 0.0610199 145.408 6.10352e-05 79.4359 6.10352e-05C8.20645 6.10352e-05 5.57782 0.0305481 4.32762 0.579163ZM38.4677 58.5203V112.164H21.7984H5.12903V59.9223C5.12903 21.7927 5.2252 7.43701 5.48165 6.70551C6.15484 4.90723 6.25101 4.90723 23.1768 4.87674H38.4677V58.5203ZM76.9355 58.5203V112.164H60.2661H43.5968V58.5203V4.87674H60.2661H76.9355V58.5203ZM115.403 58.5203V112.164H98.7339H82.0645V58.5203V4.87674H98.7339H115.403V58.5203ZM152.076 5.30345C152.813 5.57777 153.262 6.03496 153.518 6.70551C153.775 7.43701 153.871 21.7623 153.871 59.9223V112.164H137.202H120.532V58.5203V4.87674H135.759C148.069 4.87674 151.21 4.96819 152.076 5.30345ZM76.9355 131.671V146.301H42.5069C17.6631 146.301 7.82177 146.209 7.05242 145.965C5.16109 145.325 5.12903 145.051 5.12903 130.299V117.04H41.0323H76.9355V131.671ZM153.871 130.299C153.871 145.051 153.839 145.325 151.948 145.965C151.178 146.209 141.337 146.301 116.493 146.301H82.0645V131.671V117.04H117.968H153.871V130.299Z" fill="#333333" fill-opacity="0.15"/>
<path id="Vector_2" d="M28.2097 60.9585V70.7119H30.7742H33.3387V60.9585V51.2052H30.7742H28.2097V60.9585Z" fill="#333333" fill-opacity="0.15"/>
<path id="Vector_3" d="M48.7258 60.9585V70.7119H51.2903H53.8549V60.9585V51.2052H51.2903H48.7258V60.9585Z" fill="#333333" fill-opacity="0.15"/>
<path id="Vector_4" d="M105.145 60.9585V70.7119H107.71H110.274V60.9585V51.2052H107.71H105.145V60.9585Z" fill="#333333" fill-opacity="0.15"/>
<path id="Vector_5" d="M125.661 60.9585V70.7119H128.226H130.79V60.9585V51.2052H128.226H125.661V60.9585Z" fill="#333333" fill-opacity="0.15"/>
<path id="Vector_6" d="M30.7742 124.356V126.794H41.0322H51.2903V124.356V121.917H41.0322H30.7742V124.356Z" fill="#333333" fill-opacity="0.15"/>
<path id="Vector_7" d="M107.71 124.356V126.794H117.968H128.226V124.356V121.917H117.968H107.71V124.356Z" fill="#333333" fill-opacity="0.15"/>
</g>
</svg>
