<svg width="20" height="34" viewBox="0 0 20 34" fill="none" xmlns="http://www.w3.org/2000/svg">
<path d="M18.6184 33.2602C19.0823 33.0375 19.639 32.3692 19.773 31.868C20.0101 31.0103 19.8658 30.0413 19.4019 29.4732C19.3091 29.3619 16.1958 26.4548 12.495 23.0353C8.8044 19.6048 5.7736 16.7757 5.78391 16.7311C5.78391 16.6865 8.87656 13.8017 12.6599 10.3043C20.1441 3.3875 19.9998 3.55457 19.9998 2.39619C19.9998 1.62765 19.6081 0.792287 19.0514 0.380172C18.5359 -0.00966581 17.4844 -0.121048 16.8968 0.146269C16.6907 0.235375 12.9382 3.6214 8.54668 7.67571C-0.215837 15.7732 0.00064707 15.5393 0.000646958 16.7534C0.000646851 17.9229 -0.236456 17.6667 8.35081 25.6417C12.6908 29.6737 16.4226 33.0597 16.6597 33.1934C17.1442 33.4607 18.1236 33.4941 18.6184 33.2602Z" fill="white"/>
</svg>
