<svg width="20" height="34" viewBox="0 0 20 34" fill="none" xmlns="http://www.w3.org/2000/svg">
<path d="M1.38158 0.156509C0.917686 0.379272 0.361008 1.04757 0.226994 1.54879C-0.0101098 2.40643 0.134214 3.37546 0.598112 3.94351C0.690891 4.05489 3.80416 6.96197 7.50504 10.3814C11.1956 13.812 14.2264 16.6411 14.2161 16.6856C14.2161 16.7302 11.1234 19.615 7.34009 23.1124C-0.144125 30.0293 0.000199027 29.8622 0.000199027 31.0206C0.000199027 31.7891 0.391935 32.6245 0.948612 33.0366C1.46405 33.4264 2.51556 33.5378 3.10316 33.2705C3.30934 33.1814 7.06176 29.7953 11.4533 25.741C20.2158 17.6435 19.9994 17.8774 19.9994 16.6634C19.9994 15.4939 20.2365 15.75 11.6492 7.77506C7.30917 3.74302 3.57737 0.356998 3.34026 0.223339C2.85575 -0.0439796 1.87641 -0.0773926 1.38158 0.156509Z" fill="white"/>
</svg>
