<svg width="18" height="18" viewBox="0 0 18 18" fill="none" xmlns="http://www.w3.org/2000/svg">
<path fill-rule="evenodd" clip-rule="evenodd" d="M0.687895 2.69788C-0.866105 6.11088 1.9059 11.3959 7.3009 15.3049C11.9319 18.6599 13.9539 18.8349 16.4329 16.0959C18.2269 14.1139 18.2189 14.0049 16.1419 11.9279C14.3249 10.1109 13.7719 9.99288 12.3979 11.1329C11.0159 12.2799 10.4139 12.0989 8.17389 9.85788C5.9599 7.64488 5.76089 7.00488 6.8689 5.66988C7.96189 4.35188 7.88289 3.76788 6.38389 2.11188C3.95589 -0.571125 2.0899 -0.379124 0.687895 2.69788ZM5.9009 2.63088C6.8959 3.82988 6.8859 4.44388 5.8519 5.68988C4.7569 7.00888 5.0369 7.72788 7.6699 10.3619C10.3489 13.0409 11.0069 13.2879 12.3919 12.1379C13.7489 11.0119 14.2619 11.0629 15.6649 12.4669C17.2039 14.0049 17.2059 14.2539 15.6999 15.7609C13.4299 18.0309 9.72589 16.8899 5.4339 12.5979C1.4379 8.60088 0.0978951 4.80388 1.9119 2.61788C3.4679 0.741876 4.3359 0.744876 5.9009 2.63088Z" fill="#FF6219"/>
</svg>
