<svg width="159" height="152" viewBox="0 0 159 152" fill="none" xmlns="http://www.w3.org/2000/svg">
<path d="M0.657995 0.679153C-0.553275 1.88989 -0.242693 2.95297 2.86313 8.56371L5.72048 13.7315L5.87577 77.2803L6.03106 140.829L6.7454 141.508C7.42868 142.158 7.67715 142.188 13.3297 142.276C17.8642 142.335 19.2308 142.453 19.2308 142.749C19.2308 142.955 19.6656 143.93 20.1625 144.904C21.3117 147.09 23.61 149.186 26.0015 150.249C27.5544 150.958 28.1445 151.047 31.0329 151.047C33.9213 151.047 34.5114 150.958 36.0644 150.249C38.4558 149.186 40.7541 147.09 41.9033 144.904C42.4002 143.93 42.835 142.955 42.835 142.719C42.835 142.394 49.0467 142.335 79.4837 142.335C108.585 142.335 116.132 142.424 116.132 142.69C116.132 142.896 116.536 143.871 117.033 144.845C118.151 147.06 120.387 149.157 122.81 150.22C124.487 150.958 125.015 151.047 127.935 151.047C130.823 151.047 131.413 150.958 132.966 150.249C135.357 149.186 137.656 147.09 138.805 144.904C139.302 143.93 139.737 142.955 139.737 142.749C139.737 142.453 141.103 142.335 145.638 142.276C151.29 142.188 151.539 142.158 152.222 141.508L152.936 140.829L153.092 77.2803L153.247 13.7315L156.135 8.53416C159.21 2.92345 159.552 1.71271 158.372 0.590561C157.75 -4.57764e-05 157.347 -4.57764e-05 79.5458 -4.57764e-05H1.31022L0.657995 0.679153ZM152.16 4.87244C152.16 4.96101 151.383 6.49658 150.452 8.2684L148.744 11.5167H79.4837H10.2239L8.51572 8.2684C7.58397 6.49658 6.80752 4.96101 6.80752 4.87244C6.80752 4.78384 39.5118 4.72478 79.4837 4.72478C119.456 4.72478 152.16 4.78384 152.16 4.87244ZM53.3948 49.3153V82.3891H32.2752H11.1557V49.3153V16.2415H32.2752H53.3948V49.3153ZM100.603 67.624V119.006H79.4837H58.3641V67.624V16.2415H79.4837H100.603V67.624ZM147.812 67.624V119.006H126.692H105.573V67.624V16.2415H126.692H147.812V67.624ZM53.3948 94.0535V100.698H32.2752H11.1557V94.0535V87.4092H32.2752H53.3948V94.0535ZM53.3948 112.362V119.006H32.2752H11.1557V112.362V105.718H32.2752H53.3948V112.362ZM53.3948 130.671V137.315H32.2752H11.1557V130.671V124.027H32.2752H53.3948V130.671ZM147.812 130.671V137.315H103.088H58.3641V130.671V124.027H103.088H147.812V130.671ZM37.0272 143.251C35.9401 145.052 33.2691 146.469 31.0329 146.469C28.7967 146.469 26.1257 145.052 25.0387 143.251L24.4796 142.335H31.0329H37.5862L37.0272 143.251ZM133.929 143.251C132.842 145.052 130.171 146.469 127.935 146.469C125.698 146.469 123.027 145.052 121.94 143.251L121.381 142.335H127.935H134.488L133.929 143.251Z" fill="white" fill-opacity="0.1"/>
<path d="M44.2326 65.0253C42.9593 65.675 42.835 66.1179 42.835 70.4589C42.835 72.9985 42.9903 74.977 43.1767 75.4199C43.6736 76.4535 45.3197 76.9555 46.4688 76.424C47.8354 75.8038 48.1149 74.534 47.9596 69.9864C47.8043 66.177 47.7733 65.9703 46.9968 65.3206C46.1583 64.6119 45.1954 64.4938 44.2326 65.0253Z" fill="white" fill-opacity="0.1"/>
<path d="M90.7888 65.7045C89.9813 66.4722 89.9813 66.5018 90.1055 70.8722C90.1987 74.9769 90.2608 75.3313 90.882 75.9514C91.8138 76.8373 93.553 76.8373 94.4848 75.9514C95.1059 75.3313 95.168 74.9769 95.2612 70.8722C95.3854 66.5018 95.3854 66.4722 94.5779 65.7045C94.0499 65.2024 93.4598 64.9662 92.6834 64.9662C91.9069 64.9662 91.3168 65.2024 90.7888 65.7045Z" fill="white" fill-opacity="0.1"/>
<path d="M111.784 65.5571C111.256 66.0591 111.163 66.5906 111.101 68.8644C110.977 72.9987 111.163 75.0953 111.629 75.7745C112.498 77.0443 115.107 76.8081 115.791 75.4201C115.977 74.9772 116.132 72.9987 116.132 70.4591C116.132 66.443 116.101 66.2363 115.418 65.6161C114.486 64.7598 112.654 64.7302 111.784 65.5571Z" fill="white" fill-opacity="0.1"/>
<path d="M26.84 92.2817C25.8151 93.2267 25.784 94.7327 26.7779 95.6186C27.4612 96.2388 27.8028 96.2683 32.3373 96.2683C37.7725 96.2683 38.2073 96.1207 38.2694 94.024C38.3005 93.1972 38.1141 92.7838 37.4309 92.2522C36.6234 91.573 36.3749 91.5435 32.0889 91.5435C27.7096 91.5435 27.5544 91.573 26.84 92.2817Z" fill="white" fill-opacity="0.1"/>
<path d="M26.84 110.59C25.784 111.565 25.784 113.041 26.8711 114.016C27.6475 114.695 27.8339 114.725 32.3063 114.725C36.5923 114.725 36.965 114.695 37.5862 114.104C38.58 113.13 38.5179 111.447 37.4309 110.561C36.6234 109.882 36.3749 109.852 32.0889 109.852C27.7097 109.852 27.5544 109.882 26.84 110.59Z" fill="white" fill-opacity="0.1"/>
<path d="M26.9022 128.751C26.2189 129.253 26.0636 129.637 26.0636 130.641C26.0636 132.856 26.5295 133.033 32.1821 133.033H36.9961L37.7415 132.206C38.6422 131.202 38.7043 129.962 37.8968 129.017C37.3377 128.338 37.1203 128.308 32.5237 128.22C28.0513 128.131 27.7097 128.161 26.9022 128.751Z" fill="white" fill-opacity="0.1"/>
<path d="M98.2738 128.515C96.7209 129.312 96.3482 131.232 97.5284 132.265C98.4291 133.063 99.982 133.24 104.454 133.122C107.871 133.033 108.15 132.974 108.709 132.324C109.61 131.261 109.486 129.519 108.492 128.781C107.747 128.22 107.25 128.161 103.274 128.161C100.696 128.161 98.6465 128.308 98.2738 128.515Z" fill="white" fill-opacity="0.1"/>
</svg>
